# xmcd
#
# Track frame offsets: 
#        150
#        15155
#        34042
#        51119
#        63418
#        76378
#        89446
#        102633
#        115003
#        126364
#        136134
#        154219
#        168899
#        178825
#        190862
#        203263
#        214400
#        227620
#        238457
#        252422
#        264780
#
# Disc length: 3708 seconds
#
# Revision: 0
# Processed by: cddbd v1.5.2PL0 Copyright (c) Steve Scherf et al.
# Submitted via: ExactAudioCopy v0.99pb4
#
DISCID=1c0e7a15
DTITLE=Altemar Dutra - As 20 Mais
DYEAR=1900
DGENRE=Other
TTITLE0=Eu Nunca Mais Vou Te Esquecer
TTITLE1=Foi Deus Que fez Você
TTITLE2=Outra Vez
TTITLE3=Sim (She)
TTITLE4=A Pretendida
TTITLE5=Somos Iguais
TTITLE6=Venha Ver o Que Restou de Mim
TTITLE7=Preciso Aprender a Ser Só
TTITLE8=La Paloma
TTITLE9=Bloco da Solidão
TTITLE10=Tão Minha, Tão Mulher
TTITLE11=Fraqueza
TTITLE12=Concelho
TTITLE13=Solidão
TTITLE14=Luz Que Não Se Apaga
TTITLE15=Vai Andorinha
TTITLE16=Seguirei Meu Caminho
TTITLE17=Que É
TTITLE18=Quem Será
TTITLE19=Eu Sei Que Vou Te Amar
TTITLE20=Cabecinha no Ombro (Faixa Bônus)
EXTD=
EXTT0=
EXTT1=
EXTT2=
EXTT3=
EXTT4=
EXTT5=
EXTT6=
EXTT7=
EXTT8=
EXTT9=
EXTT10=
EXTT11=
EXTT12=
EXTT13=
EXTT14=
EXTT15=
EXTT16=
EXTT17=
EXTT18=
EXTT19=
EXTT20=
PLAYORDER=
